<?xml version="1.0" standalone="no"?>
<!DOCTYPE svg PUBLIC "-//W3C//DTD SVG 20010904//EN"
 "http://www.w3.org/TR/2001/REC-SVG-20010904/DTD/svg10.dtd">
<svg version="1.0" xmlns="http://www.w3.org/2000/svg"
 width="325.000000pt" height="260.000000pt" viewBox="0 0 325.000000 260.000000"
 preserveAspectRatio="xMidYMid meet">

<g transform="translate(0.000000,260.000000) scale(0.100000,-0.100000)"
fill="#000000" stroke="none">
<path d="M1860 2374 c-18 -46 -11 -126 15 -182 15 -33 25 -72 25 -99 l0 -46
-29 40 c-16 22 -42 50 -57 62 l-29 23 -3 -27 c-6 -46 26 -112 74 -154 39 -34
44 -44 44 -80 0 -22 -3 -41 -7 -41 -5 0 -18 18 -31 40 -22 38 -96 99 -108 87
-11 -10 17 -85 46 -126 17 -23 42 -47 55 -53 26 -12 32 -42 16 -83 -7 -17 -10
-15 -25 17 -19 39 -97 118 -117 118 -18 0 -1 -69 26 -112 13 -20 40 -49 60
-64 37 -28 37 -30 13 -94 -10 -24 -11 -23 -33 25 -12 28 -45 73 -73 101 -65
65 -79 117 -38 146 40 30 32 94 -16 110 -8 3 -7 21 5 71 9 36 17 69 17 72 0 3
-76 5 -170 5 -117 0 -170 -3 -170 -11 0 -6 7 -38 16 -71 8 -33 14 -61 12 -62
-34 -15 -43 -27 -46 -58 -2 -28 2 -40 22 -56 15 -11 26 -28 26 -38 0 -10 -26
-63 -57 -118 l-58 -101 -2 -295 -2 -295 -33 -14 c-18 -7 -28 -16 -21 -18 6 -2
24 2 40 10 24 13 32 13 53 1 19 -10 74 -13 221 -14 184 0 198 1 223 21 25 19
26 25 26 109 0 88 0 89 31 111 l31 22 -31 13 c-46 19 -41 48 12 75 57 29 97
58 97 71 0 7 -24 9 -70 6 -62 -5 -71 -3 -68 11 2 10 18 18 49 22 25 4 63 16
85 27 49 25 90 67 74 77 -14 9 -85 -3 -129 -21 -40 -17 -47 -13 -32 14 6 11
30 24 57 31 25 7 62 22 81 35 34 24 87 86 79 94 -11 11 -89 -13 -132 -39 -33
-22 -45 -26 -40 -14 3 9 6 21 6 25 0 5 19 18 43 28 23 11 56 35 74 53 35 37
70 109 53 109 -20 0 -85 -38 -114 -66 l-29 -29 6 39 c5 28 16 47 41 68 44 36
72 82 84 136 14 61 -2 62 -59 3 l-49 -51 0 40 c0 27 5 43 15 47 40 15 114 177
92 199 -12 12 -56 -26 -83 -71 -14 -25 -29 -44 -31 -41 -3 3 0 26 6 52 7 27 9
65 5 88 -6 40 -39 116 -49 116 -3 0 -10 -12 -15 -26z m36 -39 c15 -37 19 -122
6 -143 -19 -29 -48 85 -38 143 4 19 9 35 12 35 3 0 12 -16 20 -35z m95 -182
c-25 -50 -64 -90 -69 -74 -7 20 27 97 56 128 26 27 27 27 30 6 2 -12 -6 -39
-17 -60z m-159 -40 c29 -32 46 -63 58 -104 23 -79 -69 27 -94 109 -10 30 5 28
36 -5z m-166 -25 c-4 -18 -10 -48 -13 -65 l-6 -33 -127 0 -127 0 -11 51 c-20
85 -30 79 139 79 l152 0 -7 -32z m348 -70 c-17 -56 -74 -138 -95 -138 -20 0
21 92 59 133 31 33 46 35 36 5z m-165 -111 c10 -17 23 -45 27 -61 l7 -30 -31
22 c-35 25 -67 73 -78 116 l-7 30 31 -22 c17 -12 40 -37 51 -55z m-167 46 c23
-21 23 -38 -2 -63 -18 -18 -33 -20 -158 -20 -170 0 -206 17 -172 81 10 17 23
19 162 19 127 0 154 -3 170 -17z m-36 -125 c3 -18 13 -46 20 -63 7 -16 16 -47
19 -67 3 -20 22 -61 41 -89 30 -46 35 -59 32 -103 l-3 -51 -21 45 c-21 46 -70
102 -105 120 -17 9 -19 7 -19 -17 1 -45 34 -106 80 -146 l43 -37 -28 -40 -28
-40 -31 61 c-30 59 -106 132 -122 116 -3 -3 2 -30 11 -59 12 -37 32 -67 66
-100 l48 -47 -20 -25 c-11 -14 -24 -26 -28 -26 -5 0 -16 21 -26 46 -19 50 -85
124 -110 124 -32 0 17 -126 67 -172 l32 -30 -38 -36 -39 -35 -12 44 c-12 50
-43 98 -82 129 -32 25 -43 25 -43 2 0 -42 34 -114 72 -151 l40 -40 -54 -34
c-56 -36 -113 -67 -123 -67 -3 0 -5 132 -3 293 l3 292 48 80 c26 44 52 97 58
118 l10 37 119 0 118 0 8 -32z m374 9 c0 -19 -63 -89 -99 -110 -26 -16 -31
-16 -31 -3 0 20 57 84 95 108 36 22 35 21 35 5z m-233 -29 c34 -37 66 -94 61
-110 -6 -17 -67 41 -88 83 -35 67 -23 79 27 27z m-49 -120 c29 -31 62 -93 62
-118 0 -18 -49 20 -70 56 -24 38 -42 94 -31 94 4 0 21 -15 39 -32z m261 -15
c-34 -43 -130 -95 -146 -80 -17 17 97 96 141 97 16 0 17 -2 5 -17z m-334 -100
c51 -51 84 -123 56 -123 -17 0 -77 79 -88 115 -13 42 -5 44 32 8z m135 -31 c0
-5 -7 -17 -15 -28 -14 -18 -14 -18 -15 9 0 17 5 27 15 27 8 0 15 -4 15 -8z
m149 -18 c-28 -34 -159 -80 -159 -55 0 26 88 68 144 70 25 1 27 -1 15 -15z
m-351 -78 c38 -41 62 -90 50 -102 -15 -15 -87 71 -103 124 -10 34 8 26 53 -22z
m154 -48 c-7 -7 -12 -8 -12 -2 0 6 3 14 7 17 3 4 9 5 12 2 2 -3 -1 -11 -7 -17z
m-216 -49 c26 -38 48 -99 35 -99 -26 0 -82 79 -95 133 -6 26 -5 27 14 15 11
-7 32 -29 46 -49z m329 41 c-24 -27 -95 -52 -136 -48 l-34 3 38 23 c43 28 80
40 121 41 28 1 29 0 11 -19z m-419 -155 c33 -70 31 -85 -7 -49 -36 34 -69 94
-69 125 l0 22 26 -24 c15 -13 37 -46 50 -74z m314 64 c0 -15 -7 -19 -33 -19
-17 0 -47 -4 -65 -9 -35 -10 -35 -4 -1 34 25 28 99 23 99 -6z m35 -48 c5 -9
-26 -21 -85 -35 -30 -7 -100 3 -100 14 0 24 171 42 185 21z m-102 -46 l67 1 0
-82 c0 -122 5 -119 -241 -119 -223 0 -252 8 -178 46 24 12 64 35 88 52 42 28
46 29 75 16 38 -17 190 -19 206 -3 17 17 -54 47 -123 52 l-58 4 23 25 c18 19
28 22 48 16 14 -4 55 -8 93 -8z m-30 -66 c63 -29 -64 -42 -131 -13 -33 14 -35
17 -17 25 26 11 112 5 148 -12z"/>
<path d="M800 681 c0 -90 3 -110 16 -115 26 -10 124 -7 124 4 0 6 -27 10 -60
10 l-60 0 0 44 0 45 48 4 47 3 -47 2 -48 2 0 48 0 48 56 -1 c30 -1 57 2 60 7
3 4 -27 8 -65 8 l-71 0 0 -109z"/>
<path d="M1002 778 c-27 -34 -17 -77 21 -93 45 -19 61 -39 53 -70 -7 -28 -50
-45 -69 -26 -13 13 -27 14 -27 3 0 -18 49 -32 75 -22 61 23 55 96 -12 127 -21
10 -39 25 -41 34 -4 23 27 52 47 44 48 -20 47 -20 32 -2 -16 20 -64 23 -79 5z"/>
<path d="M1152 778 c-31 -31 -6 -87 45 -102 43 -13 41 -81 -3 -92 -14 -4 -31
-1 -39 6 -9 7 -18 11 -20 8 -3 -3 1 -11 10 -18 24 -20 67 -15 87 10 33 41 19
77 -42 108 -19 9 -36 24 -38 33 -4 23 27 52 47 44 48 -20 47 -20 32 -2 -16 20
-62 22 -79 5z"/>
<path d="M1282 678 l3 -113 64 -3 c36 -2 69 2 74 7 8 8 -9 11 -56 11 l-67 0 0
44 0 45 48 4 47 3 -47 2 -48 2 0 45 c0 49 -5 46 77 49 75 2 58 16 -21 16 l-77
0 3 -112z"/>
<path d="M1460 678 c0 -61 3 -108 6 -105 4 4 6 43 5 87 -1 47 2 80 8 80 5 0
39 -38 76 -85 36 -47 70 -85 76 -85 5 0 9 48 9 110 0 134 -18 149 -22 18 l-3
-93 -73 93 c-40 50 -75 92 -77 92 -3 0 -5 -50 -5 -112z"/>
<path d="M1674 783 c4 -5 22 -8 39 -9 l32 0 3 -107 c4 -139 22 -133 22 7 l0
103 29 -5 c16 -2 32 1 35 7 5 8 -19 11 -80 11 -48 0 -84 -3 -80 -7z"/>
<path d="M1887 678 c1 -85 5 -114 15 -116 10 -2 13 22 13 113 0 95 -3 115 -15
115 -13 0 -15 -18 -13 -112z"/>
<path d="M2037 783 c-3 -5 -22 -53 -42 -107 -38 -100 -42 -146 -5 -62 19 45
21 47 57 44 33 -3 38 -7 52 -45 8 -24 19 -43 24 -43 5 0 7 6 5 13 -77 209 -81
217 -91 200z m33 -100 c0 -7 -11 -13 -25 -13 -28 0 -31 15 -13 56 l12 27 13
-29 c7 -16 12 -35 13 -41z"/>
<path d="M2160 675 l0 -115 59 0 c33 0 63 5 66 10 4 6 -15 10 -49 10 l-56 0 0
105 c0 63 -4 105 -10 105 -6 0 -10 -45 -10 -115z"/>
<path d="M2346 774 c-34 -34 -15 -76 47 -102 20 -9 27 -18 27 -41 0 -16 -7
-34 -15 -41 -14 -12 -27 -11 -70 5 -19 7 -19 7 -3 -10 36 -38 108 -8 108 45 0
30 -21 53 -63 69 -19 8 -27 17 -27 35 0 31 28 48 54 34 21 -12 36 -1 16 12
-23 15 -57 12 -74 -6z"/>
</g>
</svg>
