<svg width="800" height="600" xmlns="http://www.w3.org/2000/svg">

 <g>
  <title>Layer 1</title>
  <path id="svg_2" d="m399.99997,591.00003c-221.54696,0 -401,-132.91161 -401,-297.00002c0,-164.08841 179.45304,-297.00002 401,-297.00002c221.54696,0 401,132.91161 401,297.00002c0,164.08841 -179.45304,297.00002 -401,297.00002z" opacity="undefined" stroke="#000" fill="#fff"/>
  <g stroke="null">
   <g stroke="null" fill="#000000" transform="translate(0 260) scale(0.1 -0.1)">
    <path stroke="null" d="m4804.8781,2315.42388c-60.36585,-114.24662 -36.89024,-312.9364 50.30488,-452.01924c50.30488,-81.95953 83.84146,-178.8208 83.84146,-245.8786l0,-114.24662l-97.2561,99.34489c-53.65854,54.63969 -140.85366,124.18111 -191.15854,153.98458l-97.2561,57.12331l-10.06098,-67.0578c-20.12195,-114.24662 87.19512,-278.16569 248.17073,-382.47782c130.79268,-84.44315 147.56098,-109.27938 147.56098,-198.68978c0,-54.63969 -10.06098,-101.82851 -23.47561,-101.82851c-16.76829,0 -60.36585,44.7052 -103.96342,99.34489c-73.78049,94.37764 -321.95122,245.8786 -362.19513,216.07513c-36.89024,-24.83622 57.0122,-211.10789 154.26829,-312.9364c57.0122,-57.12331 140.85366,-116.73024 184.45122,-131.63198c87.19512,-29.80347 107.31707,-104.31213 53.65854,-206.14064c-23.47561,-42.22158 -33.53659,-37.25433 -83.84146,42.22158c-63.71951,96.86127 -325.30488,293.06742 -392.37805,293.06742c-60.36585,0 -3.35366,-171.36993 87.19512,-278.16569c43.59756,-49.67244 134.14634,-121.69749 201.21951,-158.95182c124.08537,-69.54142 124.08537,-74.50867 43.59756,-233.46049c-33.53659,-59.60693 -36.89024,-57.12331 -110.67073,62.09056c-40.2439,69.54142 -150.91464,181.30442 -244.81708,250.84584c-217.98781,161.43544 -264.93903,290.5838 -127.43903,362.60884c134.14634,74.50867 107.31707,233.46049 -53.65854,273.19844c-26.82927,7.45087 -23.47561,52.15607 16.76829,176.33718c30.18293,89.4104 57.0122,171.36993 57.0122,178.8208c0,7.45087 -254.87805,12.41811 -570.12196,12.41811c-392.37805,0 -570.12196,-7.45087 -570.12196,-27.31984c0,-14.90173 23.47561,-94.37764 53.65854,-176.33718c26.82927,-81.95953 46.95122,-151.50095 40.2439,-153.98458c-114.02439,-37.25433 -144.20732,-67.0578 -154.26829,-144.05009c-6.70732,-69.54142 6.70732,-99.34489 73.78049,-139.08284c50.30488,-27.31984 87.19512,-69.54142 87.19512,-94.37764c0,-24.83622 -87.19512,-156.4682 -191.15854,-293.06742l-194.5122,-250.84584l-6.70732,-732.66855l-6.70732,-732.66855l-110.67073,-34.77071c-60.36585,-17.38536 -93.90244,-39.73796 -70.42683,-44.7052c20.12195,-4.96724 80.48781,4.96724 134.14634,24.83622c80.48781,32.28709 107.31707,32.28709 177.7439,2.48362c63.71951,-24.83622 248.17073,-32.28709 741.15855,-34.77071c617.07318,0 664.0244,2.48362 747.86586,52.15607c83.84146,47.18882 87.19512,62.09056 87.19512,270.71482c0,218.55875 0,221.04238 103.96342,275.68206l103.96342,54.63969l-103.96342,32.28709c-154.26829,47.18882 -137.5,119.21387 40.2439,186.27167c191.15854,72.02504 325.30488,144.05009 325.30488,176.33718c0,17.38536 -80.48781,22.3526 -234.7561,14.90173c-207.92683,-12.41811 -238.10976,-7.45087 -228.04878,27.31984c6.70732,24.83622 60.36585,44.7052 164.32927,54.63969c83.84146,9.93449 211.28049,39.73796 285.06098,67.0578c164.32927,62.09056 301.82927,166.40269 248.17073,191.23891c-46.95122,22.3526 -285.06098,-7.45087 -432.62196,-52.15607c-134.14634,-42.22158 -157.62195,-32.28709 -107.31707,34.77071c20.12195,27.31984 100.60976,59.60693 191.15854,76.99229c83.84146,17.38536 207.92683,54.63969 271.64635,86.92678c114.02439,59.60693 291.7683,213.59151 264.93903,233.46049c-36.89024,27.31984 -298.47561,-32.28709 -442.68293,-96.86127c-110.67073,-54.63969 -150.91464,-64.57418 -134.14634,-34.77071c10.06098,22.3526 20.12195,52.15607 20.12195,62.09056c0,12.41811 63.71951,44.7052 144.20732,69.54142c77.13415,27.31984 187.80488,86.92678 248.17073,131.63198c117.37805,91.89402 234.7561,270.71482 177.7439,270.71482c-67.07317,0 -285.06098,-94.37764 -382.31708,-163.91907l-97.2561,-72.02504l20.12195,96.86127c16.76829,69.54142 53.65854,116.73024 137.5,168.88631c147.56098,89.4104 241.46342,203.65702 281.70732,337.77262c46.95122,151.50095 -6.70732,153.98458 -197.86586,7.45087l-164.32927,-126.66473l0,99.34489c0,67.0578 16.76829,106.79575 50.30488,116.73024c134.14634,37.25433 382.31708,439.60113 308.53659,494.24082c-40.2439,29.80347 -187.80488,-64.57418 -278.35366,-176.33718c-46.95122,-62.09056 -97.2561,-109.27938 -103.96342,-101.82851c-10.06098,7.45087 0,64.57418 20.12195,129.14835c23.47561,67.0578 30.18293,161.43544 16.76829,218.55875c-20.12195,99.34489 -130.79268,288.10018 -164.32927,288.10018c-10.06098,0 -33.53659,-29.80347 -50.30488,-64.57418zm120.73171,-96.86127c50.30488,-91.89402 63.71951,-303.00191 20.12195,-355.15797c-63.71951,-72.02504 -160.97561,211.10789 -127.43903,355.15797c13.41463,47.18882 30.18293,86.92678 40.2439,86.92678c10.06098,0 40.2439,-39.73796 67.07317,-86.92678zm318.59757,-452.01924c-83.84146,-124.18111 -214.63415,-223.526 -231.40244,-183.78804c-23.47561,49.67244 90.54878,240.91135 187.80488,317.90364c87.19512,67.0578 90.54878,67.0578 100.60976,14.90173c6.70732,-29.80347 -20.12195,-96.86127 -57.0122,-149.01733zm-533.23171,-99.34489c97.2561,-79.47591 154.26829,-156.4682 194.5122,-258.29671c77.13415,-196.20615 -231.40244,67.0578 -315.24391,270.71482c-33.53659,74.50867 16.76829,69.54142 120.73171,-12.41811zm-556.70732,-62.09056c-13.41463,-44.7052 -33.53659,-119.21387 -43.59756,-161.43544l-20.12195,-81.95953l-425.91464,0l-425.91464,0l-36.89024,126.66473c-67.07317,211.10789 -100.60976,196.20615 466.15854,196.20615l509.7561,0l-23.47561,-79.47591zm1167.07319,-173.85355c-57.0122,-139.08284 -248.17073,-342.73986 -318.59757,-342.73986c-67.07317,0 70.42683,228.49324 197.86586,330.32175c103.96342,81.95953 154.26829,86.92678 120.73171,12.41811zm-553.35367,-275.68206c33.53659,-42.22158 77.13415,-111.763 90.54878,-151.50095l23.47561,-74.50867l-103.96342,54.63969c-117.37805,62.09056 -224.69512,181.30442 -261.58537,288.10018l-23.47561,74.50867l103.96342,-54.63969c57.0122,-29.80347 134.14634,-91.89402 171.03659,-136.59922zm-560.06098,114.24662c77.13415,-52.15607 77.13415,-94.37764 -6.70732,-156.4682c-60.36585,-44.7052 -110.67073,-49.67244 -529.87806,-49.67244c-570.12196,0 -690.85367,42.22158 -576.82928,201.1734c33.53659,42.22158 77.13415,47.18882 543.29269,47.18882c425.91464,0 516.46342,-7.45087 570.12196,-42.22158zm-120.73171,-310.45278c10.06098,-44.7052 43.59756,-114.24662 67.07317,-156.4682c23.47561,-39.73796 53.65854,-116.73024 63.71951,-166.40269c10.06098,-49.67244 73.78049,-151.50095 137.5,-221.04238c100.60976,-114.24662 117.37805,-146.53371 107.31707,-255.81309l-10.06098,-126.66473l-70.42683,111.763c-70.42683,114.24662 -234.7561,253.32946 -352.13415,298.03466c-57.0122,22.3526 -63.71951,17.38536 -63.71951,-42.22158c3.35366,-111.763 114.02439,-263.26395 268.29269,-362.60884l144.20732,-91.89402l-93.90244,-99.34489l-93.90244,-99.34489l-103.96342,151.50095c-100.60976,146.53371 -355.48781,327.83813 -409.14635,288.10018c-10.06098,-7.45087 6.70732,-74.50867 36.89024,-146.53371c40.2439,-91.89402 107.31707,-166.40269 221.34147,-248.36222l160.97561,-116.73024l-67.07317,-62.09056c-36.89024,-34.77071 -80.48781,-64.57418 -93.90244,-64.57418c-16.76829,0 -53.65854,52.15607 -87.19512,114.24662c-63.71951,124.18111 -285.06098,307.96915 -368.90244,307.96915c-107.31707,0 57.0122,-312.9364 224.69512,-427.18302l107.31707,-74.50867l-127.43903,-89.4104l-130.79268,-86.92678l-40.2439,109.27938c-40.2439,124.18111 -144.20732,243.39498 -275,320.38726c-107.31707,62.09056 -144.20732,62.09056 -144.20732,4.96724c0,-104.31213 114.02439,-283.13293 241.46342,-375.02695l134.14634,-99.34489l-181.09756,-84.44315c-187.80488,-89.4104 -378.96342,-166.40269 -412.50001,-166.40269c-10.06098,0 -16.76829,327.83813 -10.06098,727.7013l10.06098,725.21768l160.97561,198.68978c87.19512,109.27938 174.39025,240.91135 194.5122,293.06742l33.53659,91.89402l399.08537,0l395.73171,0l26.82927,-79.47591zm1254.26831,22.3526c0,-47.18882 -211.28049,-221.04238 -332.0122,-273.19844c-87.19512,-39.73796 -103.96342,-39.73796 -103.96342,-7.45087c0,49.67244 191.15854,208.62426 318.59757,268.2312c120.73171,54.63969 117.37805,52.15607 117.37805,12.41811zm-781.40245,-72.02504c114.02439,-91.89402 221.34147,-233.46049 204.57317,-273.19844c-20.12195,-42.22158 -224.69512,101.82851 -295.12196,206.14064c-117.37805,166.40269 -77.13415,196.20615 90.54878,67.0578zm-164.32927,-298.03466c97.2561,-76.99229 207.92683,-230.97686 207.92683,-293.06742c0,-44.7052 -164.32927,49.67244 -234.7561,139.08284c-80.48781,94.37764 -140.85366,233.46049 -103.96342,233.46049c13.41463,0 70.42683,-37.25433 130.79268,-79.47591zm875.30489,-37.25433c-114.02439,-106.79575 -435.97562,-235.94411 -489.63415,-198.68978c-57.0122,42.22158 325.30488,238.42773 472.86586,240.91135c53.65854,0 57.0122,-4.96724 16.76829,-42.22158zm-1120.12197,-248.36222c171.03659,-126.66473 281.70732,-305.48553 187.80488,-305.48553c-57.0122,0 -258.23171,196.20615 -295.12196,285.61655c-43.59756,104.31213 -16.76829,109.27938 107.31707,19.86898zm452.74391,-76.99229c0,-12.41811 -23.47561,-42.22158 -50.30488,-69.54142c-46.95122,-44.7052 -46.95122,-44.7052 -50.30488,22.3526c0,42.22158 16.76829,67.0578 50.30488,67.0578c26.82927,0 50.30488,-9.93449 50.30488,-19.86898zm499.69513,-44.7052c-93.90244,-84.44315 -533.23171,-198.68978 -533.23171,-136.59922c0,64.57418 295.12196,168.88631 482.92684,173.85355c83.84146,2.48362 90.54878,-2.48362 50.30488,-37.25433zm-1177.13416,-193.72253c127.43903,-101.82851 207.92683,-223.526 167.68293,-253.32946c-50.30488,-37.25433 -291.7683,176.33718 -345.42683,307.96915c-33.53659,84.44315 26.82927,64.57418 177.7439,-54.63969zm516.46342,-119.21387c-23.47561,-17.38536 -40.2439,-19.86898 -40.2439,-4.96724c0,14.90173 10.06098,34.77071 23.47561,42.22158c10.06098,9.93449 30.18293,12.41811 40.2439,4.96724c6.70732,-7.45087 -3.35366,-27.31984 -23.47561,-42.22158zm-724.39025,-121.69749c87.19512,-94.37764 160.97561,-245.8786 117.37805,-245.8786c-87.19512,0 -275,196.20615 -318.59757,330.32175c-20.12195,64.57418 -16.76829,67.0578 46.95122,37.25433c36.89024,-17.38536 107.31707,-72.02504 154.26829,-121.69749zm1103.35367,101.82851c-80.48781,-67.0578 -318.59757,-129.14835 -456.09757,-119.21387l-114.02439,7.45087l127.43903,57.12331c144.20732,69.54142 268.29269,99.34489 405.79269,101.82851c93.90244,2.48362 97.2561,0 36.89024,-47.18882zm-1405.18295,-384.96144c110.67073,-173.85355 103.96342,-211.10789 -23.47561,-121.69749c-120.73171,84.44315 -231.40244,233.46049 -231.40244,310.45278l0,54.63969l87.19512,-59.60693c50.30488,-32.28709 124.08537,-114.24662 167.68293,-183.78804zm1053.04879,158.95182c0,-37.25433 -23.47561,-47.18882 -110.67073,-47.18882c-57.0122,0 -157.62195,-9.93449 -217.98781,-22.3526c-117.37805,-24.83622 -117.37805,-9.93449 -3.35366,84.44315c83.84146,69.54142 332.0122,57.12331 332.0122,-14.90173zm117.37805,-119.21387c16.76829,-22.3526 -87.19512,-52.15607 -285.06098,-86.92678c-100.60976,-17.38536 -335.36586,7.45087 -335.36586,34.77071c0,59.60693 573.47562,104.31213 620.42684,52.15607zm-342.07318,-114.24662l224.69512,2.48362l0,-203.65702c0,-303.00191 16.76829,-295.55104 -808.23172,-295.55104c-747.86586,0 -845.12196,19.86898 -596.95123,114.24662c80.48781,29.80347 214.63415,86.92678 295.12196,129.14835c140.85366,69.54142 154.26829,72.02504 251.52439,39.73796c127.43903,-42.22158 637.19513,-47.18882 690.85367,-7.45087c57.0122,42.22158 -181.09756,116.73024 -412.50001,129.14835l-194.5122,9.93449l77.13415,62.09056c60.36585,47.18882 93.90244,54.63969 160.97561,39.73796c46.95122,-9.93449 184.45122,-19.86898 311.89025,-19.86898zm-100.60976,-163.91907c211.28049,-72.02504 -214.63415,-104.31213 -439.32927,-32.28709c-110.67073,34.77071 -117.37805,42.22158 -57.0122,62.09056c87.19512,27.31984 375.60976,12.41811 496.34147,-29.80347z"/>
    <path stroke="null" d="m1250,-1889.34851c0,-223.526 10.06098,-273.19844 53.65854,-285.61655c87.19512,-24.83622 415.85366,-17.38536 415.85366,9.93449c0,14.90173 -90.54878,24.83622 -201.21951,24.83622l-201.21951,0l0,109.27938l0,111.763l160.97561,9.93449l157.62195,7.45087l-157.62195,4.96724l-160.97561,4.96724l0,119.21387l0,119.21387l187.80488,-2.48362c100.60976,-2.48362 191.15854,4.96724 201.21951,17.38536c10.06098,9.93449 -90.54878,19.86898 -217.98781,19.86898l-238.10976,0l0,-270.71482z"/>
    <path stroke="null" d="m1927.43903,-1648.43716c-90.54878,-84.44315 -57.0122,-191.23891 70.42683,-230.97686c150.91464,-47.18882 204.57317,-96.86127 177.7439,-173.85355c-23.47561,-69.54142 -167.68293,-111.763 -231.40244,-64.57418c-43.59756,32.28709 -90.54878,34.77071 -90.54878,7.45087c0,-44.7052 164.32927,-79.47591 251.52439,-54.63969c204.57317,57.12331 184.45122,238.42773 -40.2439,315.42002c-70.42683,24.83622 -130.79268,62.09056 -137.5,84.44315c-13.41463,57.12331 90.54878,129.14835 157.62195,109.27938c160.97561,-49.67244 157.62195,-49.67244 107.31707,-4.96724c-53.65854,49.67244 -214.63415,57.12331 -264.93903,12.41811z"/>
    <path stroke="null" d="m2430.48782,-1648.43716c-103.96342,-76.99229 -20.12195,-216.07513 150.91464,-253.32946c144.20732,-32.28709 137.5,-201.1734 -10.06098,-228.49324c-46.95122,-9.93449 -103.96342,-2.48362 -130.79268,14.90173c-30.18293,17.38536 -60.36585,27.31984 -67.07317,19.86898c-10.06098,-7.45087 3.35366,-27.31984 33.53659,-44.7052c80.48781,-49.67244 224.69512,-37.25433 291.7683,24.83622c110.67073,101.82851 63.71951,191.23891 -140.85366,268.2312c-63.71951,22.3526 -120.73171,59.60693 -127.43903,81.95953c-13.41463,57.12331 90.54878,129.14835 157.62195,109.27938c160.97561,-49.67244 157.62195,-49.67244 107.31707,-4.96724c-53.65854,49.67244 -207.92683,54.63969 -264.93903,12.41811z"/>
    <path stroke="null" d="m2866.46344,-1896.79938l10.06098,-280.64931l214.63415,-7.45087c120.73171,-4.96724 231.40244,4.96724 248.17073,17.38536c26.82927,19.86898 -30.18293,27.31984 -187.80488,27.31984l-224.69512,0l0,109.27938l0,111.763l160.97561,9.93449l157.62195,7.45087l-157.62195,4.96724l-160.97561,4.96724l0,111.763c0,121.69749 -16.76829,114.24662 258.23171,121.69749c251.52439,4.96724 194.5122,39.73796 -70.42683,39.73796l-258.23171,0l10.06098,-278.16569z"/>
    <path stroke="null" d="m3463.41466,-1896.79938c0,-151.50095 10.06098,-268.2312 20.12195,-260.78033c13.41463,9.93449 20.12195,106.79575 16.76829,216.07513c-3.35366,116.73024 6.70732,198.68978 26.82927,198.68978c16.76829,0 130.79268,-94.37764 254.87805,-211.10789c120.73171,-116.73024 234.7561,-211.10789 254.87805,-211.10789c16.76829,0 30.18293,119.21387 30.18293,273.19844c0,332.80537 -60.36585,370.05971 -73.78049,44.7052l-10.06098,-230.97686l-244.81708,230.97686c-134.14634,124.18111 -251.52439,228.49324 -258.23171,228.49324c-10.06098,0 -16.76829,-124.18111 -16.76829,-278.16569z"/>
    <path stroke="null" d="m4181.0976,-1636.01905c13.41463,-12.41811 73.78049,-19.86898 130.79268,-22.3526l107.31707,0l10.06098,-265.74758c13.41463,-345.22349 73.78049,-330.32175 73.78049,17.38536l0,255.81309l97.2561,-12.41811c53.65854,-4.96724 107.31707,2.48362 117.37805,17.38536c16.76829,19.86898 -63.71951,27.31984 -268.29269,27.31984c-160.97561,0 -281.70732,-7.45087 -268.29269,-17.38536z"/>
    <path stroke="null" d="m4895.42688,-1896.79938c3.35366,-211.10789 16.76829,-283.13293 50.30488,-288.10018c33.53659,-4.96724 43.59756,54.63969 43.59756,280.64931c0,235.94411 -10.06098,285.61655 -50.30488,285.61655c-43.59756,0 -50.30488,-44.7052 -43.59756,-278.16569z"/>
    <path stroke="null" d="m5398.47566,-1636.01905c-10.06098,-12.41811 -73.78049,-131.63198 -140.85366,-265.74758c-127.43903,-248.36222 -140.85366,-362.60884 -16.76829,-153.98458c63.71951,111.763 70.42683,116.73024 191.15854,109.27938c110.67073,-7.45087 127.43903,-17.38536 174.39025,-111.763c26.82927,-59.60693 63.71951,-106.79575 80.48781,-106.79575c16.76829,0 23.47561,14.90173 16.76829,32.28709c-258.23171,519.07704 -271.64635,538.94602 -305.18293,496.72444zm110.67073,-248.36222c0,-17.38536 -36.89024,-32.28709 -83.84146,-32.28709c-93.90244,0 -103.96342,37.25433 -43.59756,139.08284l40.2439,67.0578l43.59756,-72.02504c23.47561,-39.73796 40.2439,-86.92678 43.59756,-101.82851z"/>
    <path stroke="null" d="m5810.97567,-1904.25024l0,-285.61655l197.86586,0c110.67073,0 211.28049,12.41811 221.34147,24.83622c13.41463,14.90173 -50.30488,24.83622 -164.32927,24.83622l-187.80488,0l0,260.78033c0,156.4682 -13.41463,260.78033 -33.53659,260.78033c-20.12195,0 -33.53659,-111.763 -33.53659,-285.61655z"/>
    <path stroke="null" d="m6434.75617,-1658.37165c-114.02439,-84.44315 -50.30488,-188.75529 157.62195,-253.32946c67.07317,-22.3526 90.54878,-44.7052 90.54878,-101.82851c0,-39.73796 -23.47561,-84.44315 -50.30488,-101.82851c-46.95122,-29.80347 -90.54878,-27.31984 -234.7561,12.41811c-63.71951,17.38536 -63.71951,17.38536 -10.06098,-24.83622c120.73171,-94.37764 362.19513,-19.86898 362.19513,111.763c0,74.50867 -70.42683,131.63198 -211.28049,171.36993c-63.71951,19.86898 -90.54878,42.22158 -90.54878,86.92678c0,76.99229 93.90244,119.21387 181.09756,84.44315c70.42683,-29.80347 120.73171,-2.48362 53.65854,29.80347c-77.13415,37.25433 -191.15854,29.80347 -248.17073,-14.90173z"/>
   </g>
  </g>
 </g>
</svg>